<?xml version="1.0" standalone="no"?><!-- Generator: Gravit.io --><svg xmlns="http://www.w3.org/2000/svg" xmlns:xlink="http://www.w3.org/1999/xlink" style="isolation:isolate" viewBox="0 0 95 55" width="95" height="55"><defs><clipPath id="_clipPath_trMVdROkl9dkzQkTMfnCSFjPh55AljTv"><rect width="95" height="55"/></clipPath></defs><g clip-path="url(#_clipPath_trMVdROkl9dkzQkTMfnCSFjPh55AljTv)"><clipPath id="_clipPath_7ac88YrMaJ3MZBPHAyfuHQWOYC0kc7rn"><rect x="0" y="0" width="95" height="55" transform="matrix(1,0,0,1,0,0)" fill="rgb(255,255,255)"/></clipPath><g clip-path="url(#_clipPath_7ac88YrMaJ3MZBPHAyfuHQWOYC0kc7rn)"><g><rect x="0" y="0" width="95" height="55" transform="matrix(1,0,0,1,0,0)" fill="rgb(255,255,255)"/><g><path d=" M 55.105 23.846 L 56.422 22.529 L 55.105 21.212 L 51.817 24.5 L 43.923 16.606 L 47.211 13.318 L 45.894 12 L 44.577 13.317 L 43.26 12 L 41.288 13.971 L 39.971 12.654 L 38.654 13.971 L 39.971 15.288 L 38 17.26 L 39.317 18.577 L 38 19.894 L 39.317 21.211 L 42.606 17.923 L 50.5 25.817 L 47.212 29.105 L 48.529 30.422 L 49.846 29.105 L 51.163 30.422 L 53.134 28.451 L 54.451 29.768 L 55.768 28.451 L 54.451 27.134 L 56.422 25.163 L 55.105 23.846 Z " fill="rgb(96,96,96)"/><path d=" M 30.545 41.555 L 29.73 39.328 L 26.156 39.328 L 25.353 41.555 L 24.193 41.555 L 27.451 33.024 L 28.435 33.024 L 31.699 41.555 L 30.545 41.555 L 30.545 41.555 Z  M 27.943 34.412 L 26.496 38.402 L 29.396 38.402 L 27.943 34.412 L 27.943 34.412 Z  M 33.064 33.68 L 34.148 33.68 L 34.148 35.215 L 35.332 35.215 L 35.332 36.053 L 34.148 36.053 L 34.148 39.985 L 34.148 39.985 Q 34.148 40.365 34.306 40.556 L 34.306 40.556 L 34.306 40.556 Q 34.465 40.746 34.845 40.746 L 34.845 40.746 L 34.845 40.746 Q 35.033 40.746 35.361 40.676 L 35.361 40.676 L 35.361 41.555 L 35.361 41.555 Q 34.933 41.672 34.529 41.672 L 34.529 41.672 L 34.529 41.672 Q 33.802 41.672 33.433 41.233 L 33.433 41.233 L 33.433 41.233 Q 33.064 40.793 33.064 39.985 L 33.064 39.985 L 33.064 36.053 L 31.91 36.053 L 31.91 35.215 L 33.064 35.215 L 33.064 33.68 L 33.064 33.68 Z  M 37.681 32.555 L 37.681 35.983 L 37.681 35.983 Q 38.402 35.098 39.556 35.098 L 39.556 35.098 L 39.556 35.098 Q 41.566 35.098 41.584 37.365 L 41.584 37.365 L 41.584 41.555 L 40.5 41.555 L 40.5 37.36 L 40.5 37.36 Q 40.494 36.674 40.186 36.346 L 40.186 36.346 L 40.186 36.346 Q 39.879 36.018 39.228 36.018 L 39.228 36.018 L 39.228 36.018 Q 38.701 36.018 38.302 36.299 L 38.302 36.299 L 38.302 36.299 Q 37.904 36.58 37.681 37.037 L 37.681 37.037 L 37.681 41.555 L 36.597 41.555 L 36.597 32.555 L 37.681 32.555 L 37.681 32.555 Z  M 44.384 32.555 L 44.384 41.555 L 43.3 41.555 L 43.3 32.555 L 44.384 32.555 L 44.384 32.555 Z  M 48.75 41.672 L 48.75 41.672 L 48.75 41.672 Q 47.461 41.672 46.652 40.825 L 46.652 40.825 L 46.652 40.825 Q 45.843 39.979 45.843 38.561 L 45.843 38.561 L 45.843 38.361 L 45.843 38.361 Q 45.843 37.418 46.204 36.677 L 46.204 36.677 L 46.204 36.677 Q 46.564 35.936 47.212 35.517 L 47.212 35.517 L 47.212 35.517 Q 47.859 35.098 48.615 35.098 L 48.615 35.098 L 48.615 35.098 Q 49.851 35.098 50.537 35.912 L 50.537 35.912 L 50.537 35.912 Q 51.222 36.727 51.222 38.244 L 51.222 38.244 L 51.222 38.695 L 46.927 38.695 L 46.927 38.695 Q 46.951 39.633 47.475 40.21 L 47.475 40.21 L 47.475 40.21 Q 48 40.787 48.808 40.787 L 48.808 40.787 L 48.808 40.787 Q 49.383 40.787 49.781 40.553 L 49.781 40.553 L 49.781 40.553 Q 50.179 40.318 50.478 39.932 L 50.478 39.932 L 51.14 40.447 L 51.14 40.447 Q 50.343 41.672 48.75 41.672 Z  M 48.615 35.988 L 48.615 35.988 L 48.615 35.988 Q 47.959 35.988 47.513 36.466 L 47.513 36.466 L 47.513 36.466 Q 47.068 36.943 46.963 37.805 L 46.963 37.805 L 50.138 37.805 L 50.138 37.723 L 50.138 37.723 Q 50.092 36.897 49.693 36.443 L 49.693 36.443 L 49.693 36.443 Q 49.295 35.988 48.615 35.988 Z  M 52.863 33.68 L 53.947 33.68 L 53.947 35.215 L 55.131 35.215 L 55.131 36.053 L 53.947 36.053 L 53.947 39.985 L 53.947 39.985 Q 53.947 40.365 54.105 40.556 L 54.105 40.556 L 54.105 40.556 Q 54.263 40.746 54.644 40.746 L 54.644 40.746 L 54.644 40.746 Q 54.832 40.746 55.16 40.676 L 55.16 40.676 L 55.16 41.555 L 55.16 41.555 Q 54.732 41.672 54.328 41.672 L 54.328 41.672 L 54.328 41.672 Q 53.601 41.672 53.232 41.233 L 53.232 41.233 L 53.232 41.233 Q 52.863 40.793 52.863 39.985 L 52.863 39.985 L 52.863 36.053 L 51.709 36.053 L 51.709 35.215 L 52.863 35.215 L 52.863 33.68 L 52.863 33.68 Z  M 57.574 35.215 L 57.574 41.555 L 56.49 41.555 L 56.49 35.215 L 57.574 35.215 L 57.574 35.215 Z  M 56.402 33.533 L 56.402 33.533 L 56.402 33.533 Q 56.402 33.27 56.563 33.088 L 56.563 33.088 L 56.563 33.088 Q 56.724 32.906 57.041 32.906 L 57.041 32.906 L 57.041 32.906 Q 57.357 32.906 57.521 33.088 L 57.521 33.088 L 57.521 33.088 Q 57.685 33.27 57.685 33.533 L 57.685 33.533 L 57.685 33.533 Q 57.685 33.797 57.521 33.973 L 57.521 33.973 L 57.521 33.973 Q 57.357 34.149 57.041 34.149 L 57.041 34.149 L 57.041 34.149 Q 56.724 34.149 56.563 33.973 L 56.563 33.973 L 56.563 33.973 Q 56.402 33.797 56.402 33.533 Z  M 61.851 40.787 L 61.851 40.787 L 61.851 40.787 Q 62.431 40.787 62.865 40.436 L 62.865 40.436 L 62.865 40.436 Q 63.299 40.084 63.345 39.557 L 63.345 39.557 L 64.371 39.557 L 64.371 39.557 Q 64.342 40.102 63.996 40.594 L 63.996 40.594 L 63.996 40.594 Q 63.65 41.086 63.073 41.379 L 63.073 41.379 L 63.073 41.379 Q 62.496 41.672 61.851 41.672 L 61.851 41.672 L 61.851 41.672 Q 60.556 41.672 59.792 40.808 L 59.792 40.808 L 59.792 40.808 Q 59.027 39.943 59.027 38.443 L 59.027 38.443 L 59.027 38.262 L 59.027 38.262 Q 59.027 37.336 59.367 36.615 L 59.367 36.615 L 59.367 36.615 Q 59.707 35.895 60.342 35.496 L 60.342 35.496 L 60.342 35.496 Q 60.978 35.098 61.845 35.098 L 61.845 35.098 L 61.845 35.098 Q 62.912 35.098 63.618 35.736 L 63.618 35.736 L 63.618 35.736 Q 64.324 36.375 64.371 37.395 L 64.371 37.395 L 63.345 37.395 L 63.345 37.395 Q 63.299 36.779 62.88 36.384 L 62.88 36.384 L 62.88 36.384 Q 62.461 35.988 61.845 35.988 L 61.845 35.988 L 61.845 35.988 Q 61.019 35.988 60.565 36.583 L 60.565 36.583 L 60.565 36.583 Q 60.111 37.178 60.111 38.303 L 60.111 38.303 L 60.111 38.508 L 60.111 38.508 Q 60.111 39.604 60.562 40.195 L 60.562 40.195 L 60.562 40.195 Q 61.013 40.787 61.851 40.787 Z  M 69.281 39.873 L 69.281 39.873 L 69.281 39.873 Q 69.281 39.434 68.95 39.191 L 68.95 39.191 L 68.95 39.191 Q 68.619 38.947 67.796 38.772 L 67.796 38.772 L 67.796 38.772 Q 66.972 38.596 66.489 38.35 L 66.489 38.35 L 66.489 38.35 Q 66.006 38.104 65.774 37.764 L 65.774 37.764 L 65.774 37.764 Q 65.543 37.424 65.543 36.955 L 65.543 36.955 L 65.543 36.955 Q 65.543 36.176 66.202 35.637 L 66.202 35.637 L 66.202 35.637 Q 66.861 35.098 67.886 35.098 L 67.886 35.098 L 67.886 35.098 Q 68.965 35.098 69.635 35.654 L 69.635 35.654 L 69.635 35.654 Q 70.306 36.211 70.306 37.078 L 70.306 37.078 L 69.217 37.078 L 69.217 37.078 Q 69.217 36.633 68.839 36.311 L 68.839 36.311 L 68.839 36.311 Q 68.461 35.988 67.886 35.988 L 67.886 35.988 L 67.886 35.988 Q 67.295 35.988 66.961 36.246 L 66.961 36.246 L 66.961 36.246 Q 66.627 36.504 66.627 36.92 L 66.627 36.92 L 66.627 36.92 Q 66.627 37.313 66.937 37.512 L 66.937 37.512 L 66.937 37.512 Q 67.248 37.711 68.059 37.893 L 68.059 37.893 L 68.059 37.893 Q 68.871 38.074 69.375 38.326 L 69.375 38.326 L 69.375 38.326 Q 69.879 38.578 70.122 38.933 L 70.122 38.933 L 70.122 38.933 Q 70.365 39.287 70.365 39.797 L 70.365 39.797 L 70.365 39.797 Q 70.365 40.647 69.685 41.159 L 69.685 41.159 L 69.685 41.159 Q 69.006 41.672 67.922 41.672 L 67.922 41.672 L 67.922 41.672 Q 67.16 41.672 66.574 41.402 L 66.574 41.402 L 66.574 41.402 Q 65.988 41.133 65.657 40.65 L 65.657 40.65 L 65.657 40.65 Q 65.326 40.166 65.326 39.604 L 65.326 39.604 L 66.41 39.604 L 66.41 39.604 Q 66.439 40.149 66.846 40.468 L 66.846 40.468 L 66.846 40.468 Q 67.254 40.787 67.922 40.787 L 67.922 40.787 L 67.922 40.787 Q 68.537 40.787 68.909 40.538 L 68.909 40.538 L 68.909 40.538 Q 69.281 40.289 69.281 39.873 Z " fill-rule="evenodd" fill="rgb(96,96,96)"/></g></g></g></g></svg>