<?xml version="1.0" standalone="no"?><!-- Generator: Gravit.io --><svg xmlns="http://www.w3.org/2000/svg" xmlns:xlink="http://www.w3.org/1999/xlink" style="isolation:isolate" viewBox="0 0 65 55" width="65" height="55"><defs><clipPath id="_clipPath_BC9X1Ky6jnETPkr5MplP4FMFmFC6dF6C"><rect width="65" height="55"/></clipPath></defs><g clip-path="url(#_clipPath_BC9X1Ky6jnETPkr5MplP4FMFmFC6dF6C)"><clipPath id="_clipPath_7frLXHyGvdZWHlHszsXVsGvaXWc8c4WZ"><rect x="0" y="0" width="65" height="55" transform="matrix(1,0,0,1,0,0)" fill="rgb(255,255,255)"/></clipPath><g clip-path="url(#_clipPath_7frLXHyGvdZWHlHszsXVsGvaXWc8c4WZ)"><g><rect x="0" y="0" width="65" height="55" transform="matrix(1,0,0,1,0,0)" fill="rgb(255,255,255)"/><g><path d=" M 40.105 23.846 L 41.422 22.529 L 40.105 21.212 L 36.817 24.5 L 28.923 16.606 L 32.211 13.318 L 30.894 12 L 29.577 13.317 L 28.26 12 L 26.288 13.971 L 24.971 12.654 L 23.654 13.971 L 24.971 15.288 L 23 17.26 L 24.317 18.577 L 23 19.894 L 24.317 21.211 L 27.606 17.923 L 35.5 25.817 L 32.212 29.105 L 33.529 30.422 L 34.846 29.105 L 36.163 30.422 L 38.134 28.451 L 39.451 29.768 L 40.768 28.451 L 39.451 27.134 L 41.422 25.163 L 40.105 23.846 Z " fill="rgb(96,96,96)"/><path d=" M 18.516 42 L 17.701 39.773 L 14.127 39.773 L 13.324 42 L 12.164 42 L 15.422 33.469 L 16.406 33.469 L 19.67 42 L 18.516 42 L 18.516 42 Z  M 15.914 34.857 L 14.467 38.848 L 17.367 38.848 L 15.914 34.857 L 15.914 34.857 Z  M 21.035 34.125 L 22.119 34.125 L 22.119 35.66 L 23.303 35.66 L 23.303 36.498 L 22.119 36.498 L 22.119 40.43 L 22.119 40.43 Q 22.119 40.811 22.277 41.001 L 22.277 41.001 L 22.277 41.001 Q 22.436 41.191 22.816 41.191 L 22.816 41.191 L 22.816 41.191 Q 23.004 41.191 23.332 41.121 L 23.332 41.121 L 23.332 42 L 23.332 42 Q 22.904 42.117 22.5 42.117 L 22.5 42.117 L 22.5 42.117 Q 21.773 42.117 21.404 41.678 L 21.404 41.678 L 21.404 41.678 Q 21.035 41.238 21.035 40.43 L 21.035 40.43 L 21.035 36.498 L 19.881 36.498 L 19.881 35.66 L 21.035 35.66 L 21.035 34.125 L 21.035 34.125 Z  M 25.652 33 L 25.652 36.428 L 25.652 36.428 Q 26.373 35.543 27.527 35.543 L 27.527 35.543 L 27.527 35.543 Q 29.537 35.543 29.555 37.811 L 29.555 37.811 L 29.555 42 L 28.471 42 L 28.471 37.805 L 28.471 37.805 Q 28.465 37.119 28.157 36.791 L 28.157 36.791 L 28.157 36.791 Q 27.85 36.463 27.199 36.463 L 27.199 36.463 L 27.199 36.463 Q 26.672 36.463 26.273 36.744 L 26.273 36.744 L 26.273 36.744 Q 25.875 37.025 25.652 37.482 L 25.652 37.482 L 25.652 42 L 24.568 42 L 24.568 33 L 25.652 33 L 25.652 33 Z  M 32.355 33 L 32.355 42 L 31.271 42 L 31.271 33 L 32.355 33 L 32.355 33 Z  M 36.721 42.117 L 36.721 42.117 L 36.721 42.117 Q 35.432 42.117 34.623 41.271 L 34.623 41.271 L 34.623 41.271 Q 33.814 40.424 33.814 39.006 L 33.814 39.006 L 33.814 38.807 L 33.814 38.807 Q 33.814 37.863 34.175 37.122 L 34.175 37.122 L 34.175 37.122 Q 34.535 36.381 35.183 35.962 L 35.183 35.962 L 35.183 35.962 Q 35.83 35.543 36.586 35.543 L 36.586 35.543 L 36.586 35.543 Q 37.822 35.543 38.508 36.357 L 38.508 36.357 L 38.508 36.357 Q 39.193 37.172 39.193 38.689 L 39.193 38.689 L 39.193 39.141 L 34.898 39.141 L 34.898 39.141 Q 34.922 40.078 35.446 40.655 L 35.446 40.655 L 35.446 40.655 Q 35.971 41.232 36.779 41.232 L 36.779 41.232 L 36.779 41.232 Q 37.354 41.232 37.752 40.998 L 37.752 40.998 L 37.752 40.998 Q 38.15 40.764 38.449 40.377 L 38.449 40.377 L 39.111 40.893 L 39.111 40.893 Q 38.314 42.117 36.721 42.117 Z  M 36.586 36.434 L 36.586 36.434 L 36.586 36.434 Q 35.93 36.434 35.484 36.911 L 35.484 36.911 L 35.484 36.911 Q 35.039 37.389 34.934 38.25 L 34.934 38.25 L 38.109 38.25 L 38.109 38.168 L 38.109 38.168 Q 38.063 37.342 37.664 36.888 L 37.664 36.888 L 37.664 36.888 Q 37.266 36.434 36.586 36.434 Z  M 40.834 34.125 L 41.918 34.125 L 41.918 35.66 L 43.102 35.66 L 43.102 36.498 L 41.918 36.498 L 41.918 40.43 L 41.918 40.43 Q 41.918 40.811 42.076 41.001 L 42.076 41.001 L 42.076 41.001 Q 42.234 41.191 42.615 41.191 L 42.615 41.191 L 42.615 41.191 Q 42.803 41.191 43.131 41.121 L 43.131 41.121 L 43.131 42 L 43.131 42 Q 42.703 42.117 42.299 42.117 L 42.299 42.117 L 42.299 42.117 Q 41.572 42.117 41.203 41.678 L 41.203 41.678 L 41.203 41.678 Q 40.834 41.238 40.834 40.43 L 40.834 40.43 L 40.834 36.498 L 39.68 36.498 L 39.68 35.66 L 40.834 35.66 L 40.834 34.125 L 40.834 34.125 Z  M 45.545 35.66 L 45.545 42 L 44.461 42 L 44.461 35.66 L 45.545 35.66 L 45.545 35.66 Z  M 44.373 33.979 L 44.373 33.979 L 44.373 33.979 Q 44.373 33.715 44.534 33.533 L 44.534 33.533 L 44.534 33.533 Q 44.695 33.352 45.012 33.352 L 45.012 33.352 L 45.012 33.352 Q 45.328 33.352 45.492 33.533 L 45.492 33.533 L 45.492 33.533 Q 45.656 33.715 45.656 33.979 L 45.656 33.979 L 45.656 33.979 Q 45.656 34.242 45.492 34.418 L 45.492 34.418 L 45.492 34.418 Q 45.328 34.594 45.012 34.594 L 45.012 34.594 L 45.012 34.594 Q 44.695 34.594 44.534 34.418 L 44.534 34.418 L 44.534 34.418 Q 44.373 34.242 44.373 33.979 Z  M 49.822 41.232 L 49.822 41.232 L 49.822 41.232 Q 50.402 41.232 50.836 40.881 L 50.836 40.881 L 50.836 40.881 Q 51.27 40.529 51.316 40.002 L 51.316 40.002 L 52.342 40.002 L 52.342 40.002 Q 52.313 40.547 51.967 41.039 L 51.967 41.039 L 51.967 41.039 Q 51.621 41.531 51.044 41.824 L 51.044 41.824 L 51.044 41.824 Q 50.467 42.117 49.822 42.117 L 49.822 42.117 L 49.822 42.117 Q 48.527 42.117 47.763 41.253 L 47.763 41.253 L 47.763 41.253 Q 46.998 40.389 46.998 38.889 L 46.998 38.889 L 46.998 38.707 L 46.998 38.707 Q 46.998 37.781 47.338 37.061 L 47.338 37.061 L 47.338 37.061 Q 47.678 36.34 48.313 35.941 L 48.313 35.941 L 48.313 35.941 Q 48.949 35.543 49.816 35.543 L 49.816 35.543 L 49.816 35.543 Q 50.883 35.543 51.589 36.182 L 51.589 36.182 L 51.589 36.182 Q 52.295 36.82 52.342 37.84 L 52.342 37.84 L 51.316 37.84 L 51.316 37.84 Q 51.27 37.225 50.851 36.829 L 50.851 36.829 L 50.851 36.829 Q 50.432 36.434 49.816 36.434 L 49.816 36.434 L 49.816 36.434 Q 48.99 36.434 48.536 37.028 L 48.536 37.028 L 48.536 37.028 Q 48.082 37.623 48.082 38.748 L 48.082 38.748 L 48.082 38.953 L 48.082 38.953 Q 48.082 40.049 48.533 40.641 L 48.533 40.641 L 48.533 40.641 Q 48.984 41.232 49.822 41.232 Z " fill-rule="evenodd" fill="rgb(96,96,96)"/></g></g></g></g></svg>