<?xml version="1.0" standalone="no"?><!-- Generator: Gravit.io --><svg xmlns="http://www.w3.org/2000/svg" xmlns:xlink="http://www.w3.org/1999/xlink" style="isolation:isolate" viewBox="0 0 95 55" width="95" height="55"><defs><clipPath id="_clipPath_X7RsjbPcwWGeqbQugxYO0HHIzN9CEYJW"><rect width="95" height="55"/></clipPath></defs><g clip-path="url(#_clipPath_X7RsjbPcwWGeqbQugxYO0HHIzN9CEYJW)"><clipPath id="_clipPath_uB7nqGWq1IWttePnHgu55r8k7yVLJbNJ"><rect x="0" y="0" width="95" height="55" transform="matrix(1,0,0,1,0,0)" fill="rgb(255,255,255)"/></clipPath><g clip-path="url(#_clipPath_uB7nqGWq1IWttePnHgu55r8k7yVLJbNJ)"><g><rect x="0" y="0" width="95" height="55" transform="matrix(1,0,0,1,0,0)" fill="rgb(255,255,255)"/><g><path d=" M 45 29 L 45 23 L 49 23 L 49 29 L 54 29 L 54 21 L 57 21 L 47 12 L 37 21 L 40 21 L 40 29 L 45 29 Z " fill="rgb(1,35,149)"/><path d=" M 38.547 34.469 L 38.547 43 L 37.416 43 L 37.416 39.057 L 33.115 39.057 L 33.115 43 L 31.99 43 L 31.99 34.469 L 33.115 34.469 L 33.115 38.137 L 37.416 38.137 L 37.416 34.469 L 38.547 34.469 L 38.547 34.469 Z  M 40.088 39.848 L 40.088 39.771 L 40.088 39.771 Q 40.088 38.84 40.454 38.096 L 40.454 38.096 L 40.454 38.096 Q 40.82 37.352 41.474 36.947 L 41.474 36.947 L 41.474 36.947 Q 42.127 36.543 42.965 36.543 L 42.965 36.543 L 42.965 36.543 Q 44.26 36.543 45.06 37.439 L 45.06 37.439 L 45.06 37.439 Q 45.859 38.336 45.859 39.824 L 45.859 39.824 L 45.859 39.9 L 45.859 39.9 Q 45.859 40.826 45.505 41.562 L 45.505 41.562 L 45.505 41.562 Q 45.15 42.297 44.491 42.707 L 44.491 42.707 L 44.491 42.707 Q 43.832 43.117 42.977 43.117 L 42.977 43.117 L 42.977 43.117 Q 41.688 43.117 40.888 42.221 L 40.888 42.221 L 40.888 42.221 Q 40.088 41.324 40.088 39.848 L 40.088 39.848 L 40.088 39.848 Z  M 41.178 39.9 L 41.178 39.9 L 41.178 39.9 Q 41.178 40.955 41.667 41.594 L 41.667 41.594 L 41.667 41.594 Q 42.156 42.232 42.977 42.232 L 42.977 42.232 L 42.977 42.232 Q 43.803 42.232 44.289 41.585 L 44.289 41.585 L 44.289 41.585 Q 44.775 40.938 44.775 39.771 L 44.775 39.771 L 44.775 39.771 Q 44.775 38.729 44.28 38.081 L 44.28 38.081 L 44.28 38.081 Q 43.785 37.434 42.965 37.434 L 42.965 37.434 L 42.965 37.434 Q 42.162 37.434 41.67 38.072 L 41.67 38.072 L 41.67 38.072 Q 41.178 38.711 41.178 39.9 Z  M 47.213 36.66 L 48.238 36.66 L 48.268 37.363 L 48.268 37.363 Q 48.965 36.543 50.148 36.543 L 50.148 36.543 L 50.148 36.543 Q 51.479 36.543 51.959 37.563 L 51.959 37.563 L 51.959 37.563 Q 52.275 37.105 52.782 36.824 L 52.782 36.824 L 52.782 36.824 Q 53.289 36.543 53.98 36.543 L 53.98 36.543 L 53.98 36.543 Q 56.066 36.543 56.102 38.752 L 56.102 38.752 L 56.102 43 L 55.018 43 L 55.018 38.816 L 55.018 38.816 Q 55.018 38.137 54.707 37.8 L 54.707 37.8 L 54.707 37.8 Q 54.396 37.463 53.664 37.463 L 53.664 37.463 L 53.664 37.463 Q 53.061 37.463 52.662 37.823 L 52.662 37.823 L 52.662 37.823 Q 52.264 38.184 52.199 38.793 L 52.199 38.793 L 52.199 43 L 51.109 43 L 51.109 38.846 L 51.109 38.846 Q 51.109 37.463 49.756 37.463 L 49.756 37.463 L 49.756 37.463 Q 48.689 37.463 48.297 38.371 L 48.297 38.371 L 48.297 43 L 47.213 43 L 47.213 36.66 L 47.213 36.66 Z  M 60.367 43.117 L 60.367 43.117 L 60.367 43.117 Q 59.078 43.117 58.27 42.271 L 58.27 42.271 L 58.27 42.271 Q 57.461 41.424 57.461 40.006 L 57.461 40.006 L 57.461 39.807 L 57.461 39.807 Q 57.461 38.863 57.821 38.122 L 57.821 38.122 L 57.821 38.122 Q 58.182 37.381 58.829 36.962 L 58.829 36.962 L 58.829 36.962 Q 59.477 36.543 60.232 36.543 L 60.232 36.543 L 60.232 36.543 Q 61.469 36.543 62.154 37.357 L 62.154 37.357 L 62.154 37.357 Q 62.84 38.172 62.84 39.689 L 62.84 39.689 L 62.84 40.141 L 58.545 40.141 L 58.545 40.141 Q 58.568 41.078 59.093 41.655 L 59.093 41.655 L 59.093 41.655 Q 59.617 42.232 60.426 42.232 L 60.426 42.232 L 60.426 42.232 Q 61 42.232 61.398 41.998 L 61.398 41.998 L 61.398 41.998 Q 61.797 41.764 62.096 41.377 L 62.096 41.377 L 62.758 41.893 L 62.758 41.893 Q 61.961 43.117 60.367 43.117 Z  M 60.232 37.434 L 60.232 37.434 L 60.232 37.434 Q 59.576 37.434 59.131 37.911 L 59.131 37.911 L 59.131 37.911 Q 58.686 38.389 58.58 39.25 L 58.58 39.25 L 61.756 39.25 L 61.756 39.168 L 61.756 39.168 Q 61.709 38.342 61.311 37.888 L 61.311 37.888 L 61.311 37.888 Q 60.912 37.434 60.232 37.434 Z " fill-rule="evenodd" fill="rgb(1,35,149)"/></g></g></g></g></svg>