<?xml version="1.0" standalone="no"?><!-- Generator: Gravit.io --><svg xmlns="http://www.w3.org/2000/svg" xmlns:xlink="http://www.w3.org/1999/xlink" style="isolation:isolate" viewBox="0 0 95 55" width="95" height="55"><defs><clipPath id="_clipPath_GichPDxkHRvaCSMDutbFfVmArs52OEA3"><rect width="95" height="55"/></clipPath></defs><g clip-path="url(#_clipPath_GichPDxkHRvaCSMDutbFfVmArs52OEA3)"><clipPath id="_clipPath_Ih9rcKFKvovUnvWKzE1ZrsJWtnhOJQXg"><rect x="0" y="0" width="95" height="55" transform="matrix(1,0,0,1,0,0)" fill="rgb(255,255,255)"/></clipPath><g clip-path="url(#_clipPath_Ih9rcKFKvovUnvWKzE1ZrsJWtnhOJQXg)"><g><rect x="0" y="0" width="95" height="55" transform="matrix(1,0,0,1,0,0)" fill="rgb(255,255,255)"/><g><path d=" M 45.757 25.667 L 51.574 21.308 L 45.757 16.941 L 45.757 25.667 Z  M 47.7 11.608 C 42.343 11.608 38 15.951 38 21.308 C 38 26.665 42.343 31.008 47.7 31.008 C 53.057 31.008 57.4 26.665 57.4 21.308 C 57.4 15.951 53.057 11.608 47.7 11.608 Z  M 47.7 29.061 C 44.562 29.063 41.732 27.173 40.53 24.274 C 39.329 21.375 39.992 18.038 42.211 15.819 C 44.43 13.6 47.767 12.937 50.666 14.138 C 53.565 15.34 55.455 18.17 55.453 21.308 C 55.445 25.587 51.979 29.053 47.7 29.061 L 47.7 29.061 Z " fill="rgb(96,96,96)"/><path d=" M 31.99 35.469 L 33.443 35.469 L 36.232 42.43 L 39.021 35.469 L 40.48 35.469 L 40.48 44 L 39.355 44 L 39.355 40.678 L 39.461 37.092 L 36.66 44 L 35.799 44 L 33.004 37.109 L 33.115 40.678 L 33.115 44 L 31.99 44 L 31.99 35.469 L 31.99 35.469 Z  M 44.928 44.117 L 44.928 44.117 L 44.928 44.117 Q 43.639 44.117 42.83 43.271 L 42.83 43.271 L 42.83 43.271 Q 42.021 42.424 42.021 41.006 L 42.021 41.006 L 42.021 40.807 L 42.021 40.807 Q 42.021 39.863 42.382 39.122 L 42.382 39.122 L 42.382 39.122 Q 42.742 38.381 43.39 37.962 L 43.39 37.962 L 43.39 37.962 Q 44.037 37.543 44.793 37.543 L 44.793 37.543 L 44.793 37.543 Q 46.029 37.543 46.715 38.357 L 46.715 38.357 L 46.715 38.357 Q 47.4 39.172 47.4 40.689 L 47.4 40.689 L 47.4 41.141 L 43.105 41.141 L 43.105 41.141 Q 43.129 42.078 43.653 42.655 L 43.653 42.655 L 43.653 42.655 Q 44.178 43.232 44.986 43.232 L 44.986 43.232 L 44.986 43.232 Q 45.561 43.232 45.959 42.998 L 45.959 42.998 L 45.959 42.998 Q 46.357 42.764 46.656 42.377 L 46.656 42.377 L 47.318 42.893 L 47.318 42.893 Q 46.521 44.117 44.928 44.117 Z  M 44.793 38.434 L 44.793 38.434 L 44.793 38.434 Q 44.137 38.434 43.691 38.911 L 43.691 38.911 L 43.691 38.911 Q 43.246 39.389 43.141 40.25 L 43.141 40.25 L 46.316 40.25 L 46.316 40.168 L 46.316 40.168 Q 46.27 39.342 45.871 38.888 L 45.871 38.888 L 45.871 38.888 Q 45.473 38.434 44.793 38.434 Z  M 48.391 40.859 L 48.391 40.777 L 48.391 40.777 Q 48.391 39.318 49.082 38.431 L 49.082 38.431 L 49.082 38.431 Q 49.773 37.543 50.893 37.543 L 50.893 37.543 L 50.893 37.543 Q 52.006 37.543 52.656 38.305 L 52.656 38.305 L 52.656 35 L 53.74 35 L 53.74 44 L 52.744 44 L 52.691 43.32 L 52.691 43.32 Q 52.041 44.117 50.881 44.117 L 50.881 44.117 L 50.881 44.117 Q 49.779 44.117 49.085 43.215 L 49.085 43.215 L 49.085 43.215 Q 48.391 42.313 48.391 40.859 L 48.391 40.859 L 48.391 40.859 Z  M 49.475 40.9 L 49.475 40.9 L 49.475 40.9 Q 49.475 41.979 49.92 42.588 L 49.92 42.588 L 49.92 42.588 Q 50.365 43.197 51.15 43.197 L 51.15 43.197 L 51.15 43.197 Q 52.182 43.197 52.656 42.271 L 52.656 42.271 L 52.656 39.359 L 52.656 39.359 Q 52.17 38.463 51.162 38.463 L 51.162 38.463 L 51.162 38.463 Q 50.365 38.463 49.92 39.078 L 49.92 39.078 L 49.92 39.078 Q 49.475 39.693 49.475 40.9 Z  M 56.6 37.66 L 56.6 44 L 55.516 44 L 55.516 37.66 L 56.6 37.66 L 56.6 37.66 Z  M 55.428 35.979 L 55.428 35.979 L 55.428 35.979 Q 55.428 35.715 55.589 35.533 L 55.589 35.533 L 55.589 35.533 Q 55.75 35.352 56.066 35.352 L 56.066 35.352 L 56.066 35.352 Q 56.383 35.352 56.547 35.533 L 56.547 35.533 L 56.547 35.533 Q 56.711 35.715 56.711 35.979 L 56.711 35.979 L 56.711 35.979 Q 56.711 36.242 56.547 36.418 L 56.547 36.418 L 56.547 36.418 Q 56.383 36.594 56.066 36.594 L 56.066 36.594 L 56.066 36.594 Q 55.75 36.594 55.589 36.418 L 55.589 36.418 L 55.589 36.418 Q 55.428 36.242 55.428 35.979 Z  M 63.385 44 L 62.248 44 L 62.248 44 Q 62.154 43.813 62.096 43.332 L 62.096 43.332 L 62.096 43.332 Q 61.34 44.117 60.291 44.117 L 60.291 44.117 L 60.291 44.117 Q 59.354 44.117 58.753 43.587 L 58.753 43.587 L 58.753 43.587 Q 58.152 43.057 58.152 42.242 L 58.152 42.242 L 58.152 42.242 Q 58.152 41.252 58.905 40.704 L 58.905 40.704 L 58.905 40.704 Q 59.658 40.156 61.023 40.156 L 61.023 40.156 L 62.078 40.156 L 62.078 39.658 L 62.078 39.658 Q 62.078 39.09 61.738 38.753 L 61.738 38.753 L 61.738 38.753 Q 61.398 38.416 60.736 38.416 L 60.736 38.416 L 60.736 38.416 Q 60.156 38.416 59.764 38.709 L 59.764 38.709 L 59.764 38.709 Q 59.371 39.002 59.371 39.418 L 59.371 39.418 L 58.281 39.418 L 58.281 39.418 Q 58.281 38.943 58.618 38.501 L 58.618 38.501 L 58.618 38.501 Q 58.955 38.059 59.532 37.801 L 59.532 37.801 L 59.532 37.801 Q 60.109 37.543 60.801 37.543 L 60.801 37.543 L 60.801 37.543 Q 61.896 37.543 62.518 38.091 L 62.518 38.091 L 62.518 38.091 Q 63.139 38.639 63.162 39.6 L 63.162 39.6 L 63.162 42.518 L 63.162 42.518 Q 63.162 43.391 63.385 43.906 L 63.385 43.906 L 63.385 44 L 63.385 44 Z  M 60.449 43.174 L 60.449 43.174 L 60.449 43.174 Q 60.959 43.174 61.416 42.91 L 61.416 42.91 L 61.416 42.91 Q 61.873 42.646 62.078 42.225 L 62.078 42.225 L 62.078 40.924 L 61.229 40.924 L 61.229 40.924 Q 59.236 40.924 59.236 42.09 L 59.236 42.09 L 59.236 42.09 Q 59.236 42.6 59.576 42.887 L 59.576 42.887 L 59.576 42.887 Q 59.916 43.174 60.449 43.174 Z " fill-rule="evenodd" fill="rgb(96,96,96)"/></g></g></g></g></svg>