<?xml version="1.0" standalone="no"?><!-- Generator: Gravit.io --><svg xmlns="http://www.w3.org/2000/svg" xmlns:xlink="http://www.w3.org/1999/xlink" style="isolation:isolate" viewBox="0 0 65 55" width="65" height="55"><defs><clipPath id="_clipPath_S8eWdbu5bF8oEgbX5GnLa9cTReTearps"><rect width="65" height="55"/></clipPath></defs><g clip-path="url(#_clipPath_S8eWdbu5bF8oEgbX5GnLa9cTReTearps)"><clipPath id="_clipPath_qbAQjn2trMzmPluZ67NQ2v32VwYTdCdx"><rect x="0" y="0" width="65" height="55" transform="matrix(1,0,0,1,0,0)" fill="rgb(255,255,255)"/></clipPath><g clip-path="url(#_clipPath_qbAQjn2trMzmPluZ67NQ2v32VwYTdCdx)"><g id="Media"><rect x="0" y="0" width="65" height="55" transform="matrix(1,0,0,1,0,0)" fill="rgb(255,255,255)"/><g id="Group_423"><path d=" M 30.757 24.667 L 36.574 20.308 L 30.757 15.941 L 30.757 24.667 Z  M 32.7 10.608 C 27.343 10.608 23 14.951 23 20.308 C 23 25.665 27.343 30.008 32.7 30.008 C 38.057 30.008 42.4 25.665 42.4 20.308 C 42.4 14.951 38.057 10.608 32.7 10.608 Z  M 32.7 28.061 C 29.562 28.063 26.732 26.173 25.53 23.274 C 24.329 20.375 24.992 17.038 27.211 14.819 C 29.43 12.6 32.767 11.937 35.666 13.138 C 38.565 14.34 40.455 17.17 40.453 20.308 C 40.445 24.587 36.979 28.053 32.7 28.061 L 32.7 28.061 Z " fill="rgb(96,96,96)"/><path d=" M 16.99 34.469 L 18.443 34.469 L 21.232 41.43 L 24.021 34.469 L 25.48 34.469 L 25.48 43 L 24.355 43 L 24.355 39.678 L 24.461 36.092 L 21.66 43 L 20.799 43 L 18.004 36.109 L 18.115 39.678 L 18.115 43 L 16.99 43 L 16.99 34.469 L 16.99 34.469 Z  M 29.928 43.117 L 29.928 43.117 L 29.928 43.117 Q 29.266 43.117 28.729 42.889 L 28.729 42.889 L 28.729 42.889 Q 28.193 42.66 27.813 42.253 L 27.813 42.253 L 27.813 42.253 Q 27.432 41.846 27.227 41.283 L 27.227 41.283 L 27.227 41.283 Q 27.021 40.721 27.021 40.053 L 27.021 40.053 L 27.021 39.807 L 27.021 39.807 Q 27.021 39.033 27.253 38.424 L 27.253 38.424 L 27.253 38.424 Q 27.484 37.814 27.871 37.398 L 27.871 37.398 L 27.871 37.398 Q 28.258 36.982 28.756 36.763 L 28.756 36.763 L 28.756 36.763 Q 29.254 36.543 29.793 36.543 L 29.793 36.543 L 29.793 36.543 Q 30.473 36.543 30.965 36.78 L 30.965 36.78 L 30.965 36.78 Q 31.457 37.018 31.776 37.434 L 31.776 37.434 L 31.776 37.434 Q 32.096 37.85 32.248 38.418 L 32.248 38.418 L 32.248 38.418 Q 32.4 38.986 32.4 39.654 L 32.4 39.654 L 32.4 40.141 L 28.105 40.141 L 28.105 40.141 Q 28.117 40.58 28.249 40.961 L 28.249 40.961 L 28.249 40.961 Q 28.381 41.342 28.624 41.623 L 28.624 41.623 L 28.624 41.623 Q 28.867 41.904 29.21 42.068 L 29.21 42.068 L 29.21 42.068 Q 29.553 42.232 29.986 42.232 L 29.986 42.232 L 29.986 42.232 Q 30.561 42.232 30.959 41.998 L 30.959 41.998 L 30.959 41.998 Q 31.357 41.764 31.656 41.377 L 31.656 41.377 L 32.318 41.893 L 32.318 41.893 Q 32.166 42.127 31.949 42.347 L 31.949 42.347 L 31.949 42.347 Q 31.732 42.566 31.442 42.739 L 31.442 42.739 L 31.442 42.739 Q 31.152 42.912 30.777 43.015 L 30.777 43.015 L 30.777 43.015 Q 30.402 43.117 29.928 43.117 Z  M 29.793 37.434 L 29.793 37.434 L 29.793 37.434 Q 29.465 37.434 29.189 37.554 L 29.189 37.554 L 29.189 37.554 Q 28.914 37.674 28.697 37.902 L 28.697 37.902 L 28.697 37.902 Q 28.48 38.131 28.337 38.471 L 28.337 38.471 L 28.337 38.471 Q 28.193 38.811 28.141 39.25 L 28.141 39.25 L 31.316 39.25 L 31.316 39.168 L 31.316 39.168 Q 31.299 38.852 31.214 38.541 L 31.214 38.541 L 31.214 38.541 Q 31.129 38.23 30.95 37.984 L 30.95 37.984 L 30.95 37.984 Q 30.771 37.738 30.49 37.586 L 30.49 37.586 L 30.49 37.586 Q 30.209 37.434 29.793 37.434 Z  M 33.391 39.9 L 33.391 39.777 L 33.391 39.777 Q 33.391 39.051 33.569 38.456 L 33.569 38.456 L 33.569 38.456 Q 33.748 37.861 34.076 37.437 L 34.076 37.437 L 34.076 37.437 Q 34.404 37.012 34.864 36.777 L 34.864 36.777 L 34.864 36.777 Q 35.324 36.543 35.893 36.543 L 35.893 36.543 L 35.893 36.543 Q 36.473 36.543 36.906 36.739 L 36.906 36.739 L 36.906 36.739 Q 37.34 36.936 37.656 37.305 L 37.656 37.305 L 37.656 34 L 38.74 34 L 38.74 43 L 37.744 43 L 37.691 42.32 L 37.691 42.32 Q 37.375 42.707 36.93 42.912 L 36.93 42.912 L 36.93 42.912 Q 36.484 43.117 35.881 43.117 L 35.881 43.117 L 35.881 43.117 Q 35.324 43.117 34.864 42.877 L 34.864 42.877 L 34.864 42.877 Q 34.404 42.637 34.076 42.206 L 34.076 42.206 L 34.076 42.206 Q 33.748 41.775 33.569 41.187 L 33.569 41.187 L 33.569 41.187 Q 33.391 40.598 33.391 39.9 L 33.391 39.9 L 33.391 39.9 Z  M 34.475 39.777 L 34.475 39.9 L 34.475 39.9 Q 34.475 40.375 34.571 40.794 L 34.571 40.794 L 34.571 40.794 Q 34.668 41.213 34.873 41.523 L 34.873 41.523 L 34.873 41.523 Q 35.078 41.834 35.395 42.016 L 35.395 42.016 L 35.395 42.016 Q 35.711 42.197 36.15 42.197 L 36.15 42.197 L 36.15 42.197 Q 36.438 42.197 36.666 42.13 L 36.666 42.13 L 36.666 42.13 Q 36.895 42.063 37.079 41.939 L 37.079 41.939 L 37.079 41.939 Q 37.264 41.816 37.407 41.646 L 37.407 41.646 L 37.407 41.646 Q 37.551 41.477 37.656 41.271 L 37.656 41.271 L 37.656 38.359 L 37.656 38.359 Q 37.551 38.166 37.41 38.002 L 37.41 38.002 L 37.41 38.002 Q 37.27 37.838 37.085 37.718 L 37.085 37.718 L 37.085 37.718 Q 36.9 37.598 36.672 37.53 L 36.672 37.53 L 36.672 37.53 Q 36.443 37.463 36.162 37.463 L 36.162 37.463 L 36.162 37.463 Q 35.717 37.463 35.397 37.647 L 35.397 37.647 L 35.397 37.647 Q 35.078 37.832 34.873 38.148 L 34.873 38.148 L 34.873 38.148 Q 34.668 38.465 34.571 38.884 L 34.571 38.884 L 34.571 38.884 Q 34.475 39.303 34.475 39.777 L 34.475 39.777 L 34.475 39.777 Z  M 41.6 36.66 L 41.6 43 L 40.516 43 L 40.516 36.66 L 41.6 36.66 L 41.6 36.66 Z  M 40.428 34.979 L 40.428 34.979 L 40.428 34.979 Q 40.428 34.715 40.589 34.533 L 40.589 34.533 L 40.589 34.533 Q 40.75 34.352 41.066 34.352 L 41.066 34.352 L 41.066 34.352 Q 41.383 34.352 41.547 34.533 L 41.547 34.533 L 41.547 34.533 Q 41.711 34.715 41.711 34.979 L 41.711 34.979 L 41.711 34.979 Q 41.711 35.242 41.547 35.418 L 41.547 35.418 L 41.547 35.418 Q 41.383 35.594 41.066 35.594 L 41.066 35.594 L 41.066 35.594 Q 40.75 35.594 40.589 35.418 L 40.589 35.418 L 40.589 35.418 Q 40.428 35.242 40.428 34.979 Z  M 48.385 43 L 47.248 43 L 47.248 43 Q 47.189 42.883 47.154 42.704 L 47.154 42.704 L 47.154 42.704 Q 47.119 42.525 47.096 42.332 L 47.096 42.332 L 47.096 42.332 Q 46.943 42.49 46.753 42.634 L 46.753 42.634 L 46.753 42.634 Q 46.563 42.777 46.337 42.886 L 46.337 42.886 L 46.337 42.886 Q 46.111 42.994 45.848 43.056 L 45.848 43.056 L 45.848 43.056 Q 45.584 43.117 45.291 43.117 L 45.291 43.117 L 45.291 43.117 Q 44.805 43.117 44.409 42.971 L 44.409 42.971 L 44.409 42.971 Q 44.014 42.824 43.735 42.572 L 43.735 42.572 L 43.735 42.572 Q 43.457 42.32 43.305 41.978 L 43.305 41.978 L 43.305 41.978 Q 43.152 41.635 43.152 41.242 L 43.152 41.242 L 43.152 41.242 Q 43.152 40.732 43.352 40.343 L 43.352 40.343 L 43.352 40.343 Q 43.551 39.953 43.923 39.689 L 43.923 39.689 L 43.923 39.689 Q 44.295 39.426 44.822 39.291 L 44.822 39.291 L 44.822 39.291 Q 45.35 39.156 46 39.156 L 46 39.156 L 47.078 39.156 L 47.078 38.658 L 47.078 38.658 Q 47.078 38.09 46.738 37.753 L 46.738 37.753 L 46.738 37.753 Q 46.398 37.416 45.736 37.416 L 45.736 37.416 L 45.736 37.416 Q 45.432 37.416 45.18 37.498 L 45.18 37.498 L 45.18 37.498 Q 44.928 37.58 44.749 37.718 L 44.749 37.718 L 44.749 37.718 Q 44.57 37.855 44.471 38.037 L 44.471 38.037 L 44.471 38.037 Q 44.371 38.219 44.371 38.418 L 44.371 38.418 L 43.281 38.418 L 43.281 38.418 Q 43.281 38.078 43.46 37.744 L 43.46 37.744 L 43.46 37.744 Q 43.639 37.41 43.967 37.144 L 43.967 37.144 L 43.967 37.144 Q 44.295 36.877 44.761 36.71 L 44.761 36.71 L 44.761 36.71 Q 45.227 36.543 45.801 36.543 L 45.801 36.543 L 45.801 36.543 Q 46.316 36.543 46.753 36.675 L 46.753 36.675 L 46.753 36.675 Q 47.189 36.807 47.5 37.073 L 47.5 37.073 L 47.5 37.073 Q 47.811 37.34 47.986 37.738 L 47.986 37.738 L 47.986 37.738 Q 48.162 38.137 48.162 38.67 L 48.162 38.67 L 48.162 41.617 L 48.162 41.617 Q 48.162 41.939 48.218 42.294 L 48.218 42.294 L 48.218 42.294 Q 48.273 42.648 48.385 42.906 L 48.385 42.906 L 48.385 43 L 48.385 43 Z  M 45.449 42.174 L 45.449 42.174 L 45.449 42.174 Q 45.742 42.174 46 42.092 L 46 42.092 L 46 42.092 Q 46.258 42.01 46.469 41.878 L 46.469 41.878 L 46.469 41.878 Q 46.68 41.746 46.835 41.576 L 46.835 41.576 L 46.835 41.576 Q 46.99 41.406 47.078 41.225 L 47.078 41.225 L 47.078 39.924 L 46.176 39.924 L 46.176 39.924 Q 45.244 39.924 44.74 40.214 L 44.74 40.214 L 44.74 40.214 Q 44.236 40.504 44.236 41.09 L 44.236 41.09 L 44.236 41.09 Q 44.236 41.318 44.313 41.518 L 44.313 41.518 L 44.313 41.518 Q 44.389 41.717 44.544 41.86 L 44.544 41.86 L 44.544 41.86 Q 44.699 42.004 44.925 42.089 L 44.925 42.089 L 44.925 42.089 Q 45.15 42.174 45.449 42.174 Z " fill-rule="evenodd" fill="rgb(96,96,96)"/></g></g></g></g></svg>