<?xml version="1.0" standalone="no"?><!-- Generator: Gravit.io --><svg xmlns="http://www.w3.org/2000/svg" xmlns:xlink="http://www.w3.org/1999/xlink" style="isolation:isolate" viewBox="0 0 65 55" width="65" height="55"><defs><clipPath id="_clipPath_SmLm7JLG3DGpTJE7TdZu1Wx5sE6DXMPm"><rect width="65" height="55"/></clipPath></defs><g clip-path="url(#_clipPath_SmLm7JLG3DGpTJE7TdZu1Wx5sE6DXMPm)"><clipPath id="_clipPath_PVQlyjUkwGWfTUJk7w5z2mWSSBP3CKSF"><rect x="0" y="0" width="65" height="55" transform="matrix(1,0,0,1,0,0)" fill="rgb(255,255,255)"/></clipPath><g clip-path="url(#_clipPath_PVQlyjUkwGWfTUJk7w5z2mWSSBP3CKSF)"><g id="Search"><rect x="0" y="0" width="65" height="55" transform="matrix(1,0,0,1,0,0)" fill="rgb(255,255,255)"/><g id="Group_423"><g id="Group_4091"><g id="baseline-search-24px"><path d=" M 35.837 24.704 L 35.037 24.704 L 34.755 24.432 C 37.05 21.76 36.823 17.752 34.24 15.357 C 31.657 12.963 27.643 13.039 25.152 15.529 C 22.662 18.02 22.586 22.034 24.98 24.617 C 27.375 27.2 31.383 27.427 34.055 25.132 L 34.327 25.414 L 34.327 26.214 L 39.36 31.237 L 40.86 29.737 L 35.837 24.704 Z  M 29.798 24.704 C 27.298 24.701 25.273 22.673 25.274 20.173 C 25.275 17.673 27.301 15.647 29.801 15.646 C 32.301 15.645 34.329 17.67 34.332 20.17 C 34.335 21.373 33.858 22.528 33.007 23.379 C 32.156 24.23 31.001 24.707 29.798 24.704 L 29.798 24.704 Z " fill="rgb(96,96,96)"/><path d=" M 20.236 10.608 L 44.392 10.608 L 44.392 34.764 L 20.236 34.764 L 20.236 10.608 Z " fill="none"/></g></g><path d=" M 19.537 40.844 L 19.537 40.844 L 19.537 40.844 Q 19.537 40.545 19.446 40.316 L 19.446 40.316 L 19.446 40.316 Q 19.355 40.088 19.124 39.897 L 19.124 39.897 L 19.124 39.897 Q 18.893 39.707 18.5 39.54 L 18.5 39.54 L 18.5 39.54 Q 18.107 39.373 17.504 39.197 L 17.504 39.197 L 17.504 39.197 Q 16.871 39.016 16.358 38.784 L 16.358 38.784 L 16.358 38.784 Q 15.846 38.553 15.485 38.251 L 15.485 38.251 L 15.485 38.251 Q 15.125 37.949 14.932 37.563 L 14.932 37.563 L 14.932 37.563 Q 14.738 37.176 14.738 36.678 L 14.738 36.678 L 14.738 36.678 Q 14.738 36.18 14.946 35.755 L 14.946 35.755 L 14.946 35.755 Q 15.154 35.33 15.535 35.017 L 15.535 35.017 L 15.535 35.017 Q 15.916 34.703 16.449 34.527 L 16.449 34.527 L 16.449 34.527 Q 16.982 34.352 17.639 34.352 L 17.639 34.352 L 17.639 34.352 Q 18.359 34.352 18.922 34.568 L 18.922 34.568 L 18.922 34.568 Q 19.484 34.785 19.868 35.143 L 19.868 35.143 L 19.868 35.143 Q 20.252 35.5 20.451 35.969 L 20.451 35.969 L 20.451 35.969 Q 20.65 36.438 20.65 36.936 L 20.65 36.936 L 19.52 36.936 L 19.52 36.936 Q 19.52 36.578 19.405 36.273 L 19.405 36.273 L 19.405 36.273 Q 19.291 35.969 19.057 35.746 L 19.057 35.746 L 19.057 35.746 Q 18.822 35.523 18.471 35.4 L 18.471 35.4 L 18.471 35.4 Q 18.119 35.277 17.639 35.277 L 17.639 35.277 L 17.639 35.277 Q 17.188 35.277 16.854 35.383 L 16.854 35.383 L 16.854 35.383 Q 16.52 35.488 16.303 35.673 L 16.303 35.673 L 16.303 35.673 Q 16.086 35.857 15.98 36.109 L 15.98 36.109 L 15.98 36.109 Q 15.875 36.361 15.875 36.66 L 15.875 36.66 L 15.875 36.66 Q 15.875 36.93 15.989 37.152 L 15.989 37.152 L 15.989 37.152 Q 16.104 37.375 16.344 37.563 L 16.344 37.563 L 16.344 37.563 Q 16.584 37.75 16.962 37.908 L 16.962 37.908 L 16.962 37.908 Q 17.34 38.066 17.867 38.213 L 17.867 38.213 L 17.867 38.213 Q 18.594 38.418 19.121 38.667 L 19.121 38.667 L 19.121 38.667 Q 19.648 38.916 19.991 39.232 L 19.991 39.232 L 19.991 39.232 Q 20.334 39.549 20.501 39.941 L 20.501 39.941 L 20.501 39.941 Q 20.668 40.334 20.668 40.832 L 20.668 40.832 L 20.668 40.832 Q 20.668 41.354 20.457 41.775 L 20.457 41.775 L 20.457 41.775 Q 20.246 42.197 19.856 42.496 L 19.856 42.496 L 19.856 42.496 Q 19.467 42.795 18.919 42.956 L 18.919 42.956 L 18.919 42.956 Q 18.371 43.117 17.697 43.117 L 17.697 43.117 L 17.697 43.117 Q 17.305 43.117 16.912 43.044 L 16.912 43.044 L 16.912 43.044 Q 16.52 42.971 16.159 42.824 L 16.159 42.824 L 16.159 42.824 Q 15.799 42.678 15.491 42.461 L 15.491 42.461 L 15.491 42.461 Q 15.184 42.244 14.955 41.957 L 14.955 41.957 L 14.955 41.957 Q 14.727 41.67 14.598 41.313 L 14.598 41.313 L 14.598 41.313 Q 14.469 40.955 14.469 40.527 L 14.469 40.527 L 15.6 40.527 L 15.6 40.527 Q 15.6 40.967 15.772 41.28 L 15.772 41.28 L 15.772 41.28 Q 15.945 41.594 16.235 41.799 L 16.235 41.799 L 16.235 41.799 Q 16.525 42.004 16.903 42.101 L 16.903 42.101 L 16.903 42.101 Q 17.281 42.197 17.697 42.197 L 17.697 42.197 L 17.697 42.197 Q 18.588 42.197 19.063 41.834 L 19.063 41.834 L 19.063 41.834 Q 19.537 41.471 19.537 40.844 Z  M 24.57 43.117 L 24.57 43.117 L 24.57 43.117 Q 23.908 43.117 23.372 42.889 L 23.372 42.889 L 23.372 42.889 Q 22.836 42.66 22.455 42.253 L 22.455 42.253 L 22.455 42.253 Q 22.074 41.846 21.869 41.283 L 21.869 41.283 L 21.869 41.283 Q 21.664 40.721 21.664 40.053 L 21.664 40.053 L 21.664 39.807 L 21.664 39.807 Q 21.664 39.033 21.896 38.424 L 21.896 38.424 L 21.896 38.424 Q 22.127 37.814 22.514 37.398 L 22.514 37.398 L 22.514 37.398 Q 22.9 36.982 23.398 36.763 L 23.398 36.763 L 23.398 36.763 Q 23.896 36.543 24.436 36.543 L 24.436 36.543 L 24.436 36.543 Q 25.115 36.543 25.607 36.78 L 25.607 36.78 L 25.607 36.78 Q 26.1 37.018 26.419 37.434 L 26.419 37.434 L 26.419 37.434 Q 26.738 37.85 26.891 38.418 L 26.891 38.418 L 26.891 38.418 Q 27.043 38.986 27.043 39.654 L 27.043 39.654 L 27.043 40.141 L 22.748 40.141 L 22.748 40.141 Q 22.76 40.58 22.892 40.961 L 22.892 40.961 L 22.892 40.961 Q 23.023 41.342 23.267 41.623 L 23.267 41.623 L 23.267 41.623 Q 23.51 41.904 23.853 42.068 L 23.853 42.068 L 23.853 42.068 Q 24.195 42.232 24.629 42.232 L 24.629 42.232 L 24.629 42.232 Q 25.203 42.232 25.602 41.998 L 25.602 41.998 L 25.602 41.998 Q 26 41.764 26.299 41.377 L 26.299 41.377 L 26.961 41.893 L 26.961 41.893 Q 26.809 42.127 26.592 42.347 L 26.592 42.347 L 26.592 42.347 Q 26.375 42.566 26.085 42.739 L 26.085 42.739 L 26.085 42.739 Q 25.795 42.912 25.42 43.015 L 25.42 43.015 L 25.42 43.015 Q 25.045 43.117 24.57 43.117 Z  M 24.436 37.434 L 24.436 37.434 L 24.436 37.434 Q 24.107 37.434 23.832 37.554 L 23.832 37.554 L 23.832 37.554 Q 23.557 37.674 23.34 37.902 L 23.34 37.902 L 23.34 37.902 Q 23.123 38.131 22.979 38.471 L 22.979 38.471 L 22.979 38.471 Q 22.836 38.811 22.783 39.25 L 22.783 39.25 L 25.959 39.25 L 25.959 39.168 L 25.959 39.168 Q 25.941 38.852 25.856 38.541 L 25.856 38.541 L 25.856 38.541 Q 25.771 38.23 25.593 37.984 L 25.593 37.984 L 25.593 37.984 Q 25.414 37.738 25.133 37.586 L 25.133 37.586 L 25.133 37.586 Q 24.852 37.434 24.436 37.434 Z  M 33.348 43 L 32.211 43 L 32.211 43 Q 32.152 42.883 32.117 42.704 L 32.117 42.704 L 32.117 42.704 Q 32.082 42.525 32.059 42.332 L 32.059 42.332 L 32.059 42.332 Q 31.906 42.49 31.716 42.634 L 31.716 42.634 L 31.716 42.634 Q 31.525 42.777 31.3 42.886 L 31.3 42.886 L 31.3 42.886 Q 31.074 42.994 30.811 43.056 L 30.811 43.056 L 30.811 43.056 Q 30.547 43.117 30.254 43.117 L 30.254 43.117 L 30.254 43.117 Q 29.768 43.117 29.372 42.971 L 29.372 42.971 L 29.372 42.971 Q 28.977 42.824 28.698 42.572 L 28.698 42.572 L 28.698 42.572 Q 28.42 42.32 28.268 41.978 L 28.268 41.978 L 28.268 41.978 Q 28.115 41.635 28.115 41.242 L 28.115 41.242 L 28.115 41.242 Q 28.115 40.732 28.314 40.343 L 28.314 40.343 L 28.314 40.343 Q 28.514 39.953 28.886 39.689 L 28.886 39.689 L 28.886 39.689 Q 29.258 39.426 29.785 39.291 L 29.785 39.291 L 29.785 39.291 Q 30.313 39.156 30.963 39.156 L 30.963 39.156 L 32.041 39.156 L 32.041 38.658 L 32.041 38.658 Q 32.041 38.09 31.701 37.753 L 31.701 37.753 L 31.701 37.753 Q 31.361 37.416 30.699 37.416 L 30.699 37.416 L 30.699 37.416 Q 30.395 37.416 30.143 37.498 L 30.143 37.498 L 30.143 37.498 Q 29.891 37.58 29.712 37.718 L 29.712 37.718 L 29.712 37.718 Q 29.533 37.855 29.434 38.037 L 29.434 38.037 L 29.434 38.037 Q 29.334 38.219 29.334 38.418 L 29.334 38.418 L 28.244 38.418 L 28.244 38.418 Q 28.244 38.078 28.423 37.744 L 28.423 37.744 L 28.423 37.744 Q 28.602 37.41 28.93 37.144 L 28.93 37.144 L 28.93 37.144 Q 29.258 36.877 29.724 36.71 L 29.724 36.71 L 29.724 36.71 Q 30.189 36.543 30.764 36.543 L 30.764 36.543 L 30.764 36.543 Q 31.279 36.543 31.716 36.675 L 31.716 36.675 L 31.716 36.675 Q 32.152 36.807 32.463 37.073 L 32.463 37.073 L 32.463 37.073 Q 32.773 37.34 32.949 37.738 L 32.949 37.738 L 32.949 37.738 Q 33.125 38.137 33.125 38.67 L 33.125 38.67 L 33.125 41.617 L 33.125 41.617 Q 33.125 41.939 33.181 42.294 L 33.181 42.294 L 33.181 42.294 Q 33.236 42.648 33.348 42.906 L 33.348 42.906 L 33.348 43 L 33.348 43 Z  M 30.412 42.174 L 30.412 42.174 L 30.412 42.174 Q 30.705 42.174 30.963 42.092 L 30.963 42.092 L 30.963 42.092 Q 31.221 42.01 31.432 41.878 L 31.432 41.878 L 31.432 41.878 Q 31.643 41.746 31.798 41.576 L 31.798 41.576 L 31.798 41.576 Q 31.953 41.406 32.041 41.225 L 32.041 41.225 L 32.041 39.924 L 31.139 39.924 L 31.139 39.924 Q 30.207 39.924 29.703 40.214 L 29.703 40.214 L 29.703 40.214 Q 29.199 40.504 29.199 41.09 L 29.199 41.09 L 29.199 41.09 Q 29.199 41.318 29.275 41.518 L 29.275 41.518 L 29.275 41.518 Q 29.352 41.717 29.507 41.86 L 29.507 41.86 L 29.507 41.86 Q 29.662 42.004 29.888 42.089 L 29.888 42.089 L 29.888 42.089 Q 30.113 42.174 30.412 42.174 Z  M 37.889 36.625 L 37.889 37.633 L 37.889 37.633 Q 37.748 37.609 37.628 37.601 L 37.628 37.601 L 37.628 37.601 Q 37.508 37.592 37.355 37.592 L 37.355 37.592 L 37.355 37.592 Q 36.793 37.592 36.438 37.838 L 36.438 37.838 L 36.438 37.838 Q 36.084 38.084 35.908 38.5 L 35.908 38.5 L 35.908 43 L 34.824 43 L 34.824 36.66 L 35.879 36.66 L 35.896 37.393 L 35.896 37.393 Q 36.143 37 36.512 36.771 L 36.512 36.771 L 36.512 36.771 Q 36.881 36.543 37.408 36.543 L 37.408 36.543 L 37.408 36.543 Q 37.525 36.543 37.678 36.569 L 37.678 36.569 L 37.678 36.569 Q 37.83 36.596 37.889 36.625 L 37.889 36.625 L 37.889 36.625 Z  M 41.428 42.232 L 41.428 42.232 L 41.428 42.232 Q 41.715 42.232 41.979 42.139 L 41.979 42.139 L 41.979 42.139 Q 42.242 42.045 42.444 41.881 L 42.444 41.881 L 42.444 41.881 Q 42.646 41.717 42.772 41.491 L 42.772 41.491 L 42.772 41.491 Q 42.898 41.266 42.922 41.002 L 42.922 41.002 L 43.947 41.002 L 43.947 41.002 Q 43.924 41.424 43.716 41.808 L 43.716 41.808 L 43.716 41.808 Q 43.508 42.191 43.168 42.481 L 43.168 42.481 L 43.168 42.481 Q 42.828 42.771 42.38 42.944 L 42.38 42.944 L 42.38 42.944 Q 41.932 43.117 41.428 43.117 L 41.428 43.117 L 41.428 43.117 Q 40.713 43.117 40.183 42.862 L 40.183 42.862 L 40.183 42.862 Q 39.652 42.607 39.301 42.174 L 39.301 42.174 L 39.301 42.174 Q 38.949 41.74 38.776 41.166 L 38.776 41.166 L 38.776 41.166 Q 38.604 40.592 38.604 39.953 L 38.604 39.953 L 38.604 39.707 L 38.604 39.707 Q 38.604 39.068 38.776 38.494 L 38.776 38.494 L 38.776 38.494 Q 38.949 37.92 39.301 37.486 L 39.301 37.486 L 39.301 37.486 Q 39.652 37.053 40.18 36.798 L 40.18 36.798 L 40.18 36.798 Q 40.707 36.543 41.422 36.543 L 41.422 36.543 L 41.422 36.543 Q 41.979 36.543 42.433 36.719 L 42.433 36.719 L 42.433 36.719 Q 42.887 36.895 43.218 37.202 L 43.218 37.202 L 43.218 37.202 Q 43.549 37.51 43.736 37.932 L 43.736 37.932 L 43.736 37.932 Q 43.924 38.354 43.947 38.84 L 43.947 38.84 L 42.922 38.84 L 42.922 38.84 Q 42.898 38.547 42.784 38.292 L 42.784 38.292 L 42.784 38.292 Q 42.67 38.037 42.477 37.847 L 42.477 37.847 L 42.477 37.847 Q 42.283 37.656 42.017 37.545 L 42.017 37.545 L 42.017 37.545 Q 41.75 37.434 41.422 37.434 L 41.422 37.434 L 41.422 37.434 Q 40.918 37.434 40.587 37.633 L 40.587 37.633 L 40.587 37.633 Q 40.256 37.832 40.054 38.157 L 40.054 38.157 L 40.054 38.157 Q 39.852 38.482 39.77 38.89 L 39.77 38.89 L 39.77 38.89 Q 39.688 39.297 39.688 39.707 L 39.688 39.707 L 39.688 39.953 L 39.688 39.953 Q 39.688 40.375 39.77 40.782 L 39.77 40.782 L 39.77 40.782 Q 39.852 41.189 40.051 41.512 L 40.051 41.512 L 40.051 41.512 Q 40.25 41.834 40.584 42.033 L 40.584 42.033 L 40.584 42.033 Q 40.918 42.232 41.428 42.232 Z  M 46.25 34 L 46.25 37.428 L 46.25 37.428 Q 46.59 37.012 47.064 36.777 L 47.064 36.777 L 47.064 36.777 Q 47.539 36.543 48.125 36.543 L 48.125 36.543 L 48.125 36.543 Q 48.588 36.543 48.963 36.669 L 48.963 36.669 L 48.963 36.669 Q 49.338 36.795 49.602 37.073 L 49.602 37.073 L 49.602 37.073 Q 49.865 37.352 50.009 37.788 L 50.009 37.788 L 50.009 37.788 Q 50.152 38.225 50.152 38.846 L 50.152 38.846 L 50.152 43 L 49.068 43 L 49.068 38.834 L 49.068 38.834 Q 49.068 38.465 48.986 38.204 L 48.986 38.204 L 48.986 38.204 Q 48.904 37.943 48.743 37.779 L 48.743 37.779 L 48.743 37.779 Q 48.582 37.615 48.345 37.539 L 48.345 37.539 L 48.345 37.539 Q 48.107 37.463 47.797 37.463 L 47.797 37.463 L 47.797 37.463 Q 47.27 37.463 46.871 37.744 L 46.871 37.744 L 46.871 37.744 Q 46.473 38.025 46.25 38.482 L 46.25 38.482 L 46.25 43 L 45.166 43 L 45.166 34 L 46.25 34 L 46.25 34 Z " fill-rule="evenodd" fill="rgb(96,96,96)"/></g></g></g></g></svg>